<svg width="88" height="15" viewBox="0 0 88 15" fill="none" xmlns="http://www.w3.org/2000/svg">
<path fill-rule="evenodd" clip-rule="evenodd" d="M12.2417 1.54167H0.758333C0.638672 1.54167 0.541667 1.63867 0.541667 1.75833V13.2417C0.541667 13.3613 0.638672 13.4583 0.758333 13.4583H12.2417C12.3613 13.4583 12.4583 13.3613 12.4583 13.2417V1.75833C12.4583 1.63867 12.3613 1.54167 12.2417 1.54167ZM0.758333 1C0.339517 1 0 1.33952 0 1.75833V13.2417C0 13.6605 0.339517 14 0.758333 14H12.2417C12.6605 14 13 13.6605 13 13.2417V1.75833C13 1.33952 12.6605 1 12.2417 1H0.758333Z" fill="black"/>
<path d="M6.93336 2.13747C6.93336 2.01781 7.03036 1.92081 7.15003 1.92081H11.5917C11.7114 1.92081 11.8084 2.01781 11.8084 2.13747C11.8084 2.25714 11.7114 2.35414 11.5917 2.35414H7.15003C7.03036 2.35414 6.93336 2.25714 6.93336 2.13747Z" fill="black"/>
<path fill-rule="evenodd" clip-rule="evenodd" d="M12.2417 1.54167H0.758333C0.638672 1.54167 0.541667 1.63867 0.541667 1.75833V2.84167H12.4583V1.75833C12.4583 1.63867 12.3613 1.54167 12.2417 1.54167ZM0.758333 1C0.339517 1 0 1.33952 0 1.75833V3.38333H13V1.75833C13 1.33952 12.6605 1 12.2417 1H0.758333Z" fill="black"/>
<path d="M2.00415 2.13753C2.00415 2.37685 1.81014 2.57086 1.57082 2.57086C1.3315 2.57086 1.13749 2.37685 1.13749 2.13753C1.13749 1.8982 1.3315 1.70419 1.57082 1.70419C1.81014 1.70419 2.00415 1.8982 2.00415 2.13753Z" fill="black"/>
<path d="M3.25001 2.13753C3.25001 2.37685 3.056 2.57086 2.81668 2.57086C2.57736 2.57086 2.38335 2.37685 2.38335 2.13753C2.38335 1.8982 2.57736 1.70419 2.81668 1.70419C3.056 1.70419 3.25001 1.8982 3.25001 2.13753Z" fill="black"/>
<path d="M4.49581 2.13753C4.49581 2.37685 4.3018 2.57086 4.06247 2.57086C3.82315 2.57086 3.62914 2.37685 3.62914 2.13753C3.62914 1.8982 3.82315 1.70419 4.06247 1.70419C4.3018 1.70419 4.49581 1.8982 4.49581 2.13753Z" fill="black"/>
<path fill-rule="evenodd" clip-rule="evenodd" d="M10.725 8.90833H2.22083V11.8333H10.725V8.90833ZM1.89583 8.58333V12.1583H11.05V8.58333H1.89583Z" fill="black"/>
<path fill-rule="evenodd" clip-rule="evenodd" d="M10.725 4.90005H7.25836V7.50005H10.725V4.90005ZM6.93336 4.57505V7.82505H11.05V4.57505H6.93336Z" fill="black"/>
<path d="M1.89583 6.68747C1.89583 6.59773 1.96859 6.52497 2.05833 6.52497H5.85C5.93975 6.52497 6.0125 6.59773 6.0125 6.68747C6.0125 6.77722 5.93975 6.84997 5.85 6.84997H2.05833C1.96859 6.84997 1.89583 6.77722 1.89583 6.68747Z" fill="black"/>
<path d="M1.89583 7.49997C1.89583 7.41023 1.96859 7.33747 2.05833 7.33747H5.85C5.93975 7.33747 6.0125 7.41023 6.0125 7.49997C6.0125 7.58972 5.93975 7.66247 5.85 7.66247H2.05833C1.96859 7.66247 1.89583 7.58972 1.89583 7.49997Z" fill="black"/>
<path d="M1.89583 5.06247C1.89583 4.97273 1.96859 4.89997 2.05833 4.89997H5.85C5.93975 4.89997 6.0125 4.97273 6.0125 5.06247C6.0125 5.15222 5.93975 5.22497 5.85 5.22497H2.05833C1.96859 5.22497 1.89583 5.15222 1.89583 5.06247Z" fill="black"/>
<path d="M1.89583 5.87497C1.89583 5.78523 1.96859 5.71247 2.05833 5.71247H5.85C5.93975 5.71247 6.0125 5.78523 6.0125 5.87497C6.0125 5.96472 5.93975 6.03747 5.85 6.03747H2.05833C1.96859 6.03747 1.89583 5.96472 1.89583 5.87497Z" fill="black"/>
<path d="M27.118 3.462V4.414C26.67 3.686 25.76 3.322 24.85 3.322C23.086 3.322 21.616 4.638 21.616 6.724C21.616 8.796 23.086 10.14 24.864 10.14C25.732 10.14 26.67 9.762 27.118 9.048V9.132C27.118 11.204 26.264 11.988 24.892 11.988C24.178 11.988 23.422 11.582 23.058 10.882L21.896 11.456C22.512 12.618 23.66 13.262 24.892 13.262C27.09 13.262 28.49 12.058 28.49 9.02V3.462H27.118ZM25.018 8.838C23.898 8.838 22.988 7.928 22.988 6.71C22.988 5.478 23.898 4.624 25.018 4.624C26.026 4.624 27.104 5.394 27.104 6.71C27.104 8.026 26.124 8.838 25.018 8.838ZM33.5496 10.14C35.4116 10.14 36.9936 8.782 36.9936 6.71C36.9936 4.638 35.4116 3.322 33.5496 3.322C31.6876 3.322 30.1196 4.638 30.1196 6.71C30.1196 8.782 31.6876 10.14 33.5496 10.14ZM33.5496 8.838C32.4296 8.838 31.4916 7.984 31.4916 6.71C31.4916 5.45 32.4296 4.61 33.5496 4.61C34.6696 4.61 35.6216 5.45 35.6216 6.71C35.6216 7.984 34.6696 8.838 33.5496 8.838ZM42.8796 3.462L40.9756 8.222L39.0716 3.462H37.6016L40.3316 10H41.6336L44.3636 3.462H42.8796ZM51.5372 10H53.0492L49.4092 0.354H47.8692L44.2152 10H45.7272L46.6232 7.564H50.6272L51.5372 10ZM47.0852 6.304L48.6252 2.146L50.1652 6.304H47.0852ZM57.1632 10.126C58.2272 10.126 59.1372 9.692 59.7112 9.006L58.8012 8.152C58.4232 8.572 57.8492 8.838 57.1912 8.838C55.9732 8.838 55.0072 7.97 55.0072 6.724C55.0072 5.478 55.9732 4.61 57.1912 4.61C57.8492 4.61 58.4232 4.876 58.8012 5.296L59.7112 4.442C59.1372 3.756 58.2272 3.322 57.1632 3.322C55.2732 3.322 53.6352 4.652 53.6352 6.724C53.6352 8.796 55.2732 10.126 57.1632 10.126ZM64.1359 10.126C65.1999 10.126 66.1099 9.692 66.6839 9.006L65.7739 8.152C65.3959 8.572 64.8219 8.838 64.1639 8.838C62.9459 8.838 61.9799 7.97 61.9799 6.724C61.9799 5.478 62.9459 4.61 64.1639 4.61C64.8219 4.61 65.3959 4.876 65.7739 5.296L66.6839 4.442C66.1099 3.756 65.1999 3.322 64.1359 3.322C62.2459 3.322 60.6079 4.652 60.6079 6.724C60.6079 8.796 62.2459 10.126 64.1359 10.126ZM74.2305 6.696C74.2305 4.638 72.8165 3.322 70.9545 3.322C69.0925 3.322 67.5805 4.638 67.5805 6.71C67.5805 8.782 69.0645 10.14 70.9545 10.14C72.2005 10.14 73.3765 9.58 73.9505 8.488L72.8585 7.942C72.4945 8.544 71.7805 8.866 71.0245 8.866C69.9605 8.866 69.1765 8.348 68.9945 7.284H74.2025C74.2165 7.074 74.2305 6.878 74.2305 6.696ZM69.0085 6.178C69.2045 5.1 69.9605 4.596 70.9685 4.596C71.9765 4.596 72.7325 5.156 72.8585 6.178H69.0085ZM77.8368 10.14C79.1808 10.14 80.4128 9.412 80.4128 8.166C80.4128 7.466 80.1048 6.598 78.7048 6.248L77.7108 6.01C77.3048 5.912 76.9268 5.688 76.9268 5.282C76.9268 4.834 77.3188 4.484 77.8928 4.484C78.3828 4.484 78.8728 4.806 78.8728 5.282H80.1888C80.1888 3.91 78.9848 3.322 77.8648 3.322C76.5068 3.322 75.5408 4.176 75.5408 5.24C75.5408 6.206 76.1008 6.836 77.3188 7.158L78.2008 7.368C78.6908 7.48 79.0408 7.704 79.0408 8.138C79.0408 8.628 78.5788 8.978 77.8228 8.978C77.0808 8.978 76.6188 8.53 76.6188 8.012H75.3448C75.3728 9.37 76.6188 10.14 77.8368 10.14ZM84.0439 10.14C85.3879 10.14 86.6199 9.412 86.6199 8.166C86.6199 7.466 86.3119 6.598 84.9119 6.248L83.9179 6.01C83.5119 5.912 83.1339 5.688 83.1339 5.282C83.1339 4.834 83.5259 4.484 84.0999 4.484C84.5899 4.484 85.0799 4.806 85.0799 5.282H86.3959C86.3959 3.91 85.1919 3.322 84.0719 3.322C82.7139 3.322 81.7479 4.176 81.7479 5.24C81.7479 6.206 82.3079 6.836 83.5259 7.158L84.4079 7.368C84.8979 7.48 85.2479 7.704 85.2479 8.138C85.2479 8.628 84.7859 8.978 84.0299 8.978C83.2879 8.978 82.8259 8.53 82.8259 8.012H81.5519C81.5799 9.37 82.8259 10.14 84.0439 10.14Z" fill="#333333"/>
</svg>
