<svg xmlns="http://www.w3.org/2000/svg" viewBox="0 0 28 28">
  <defs>
    <style>
      .cls-1 {
        fill: #5c656a;
      }
    </style>
  </defs>
  <g id="serviceDirectory" transform="translate(0 0)">
    <path id="Path_3662" data-name="Path 3662" class="cls-1" d="M28,17.267V10.733H25.2a11.527,11.527,0,0,0-.972-2.34l1.981-1.982-4.62-4.62L19.608,3.773A11.523,11.523,0,0,0,17.267,2.8V0H10.733V2.8a11.528,11.528,0,0,0-2.34.972L6.412,1.79,1.792,6.41,3.773,8.391A11.516,11.516,0,0,0,2.8,10.733H0v6.533H2.8a11.528,11.528,0,0,0,.972,2.34L1.79,21.588l4.62,4.62,1.981-1.981a11.556,11.556,0,0,0,2.342.973V28h6.533V25.2a11.528,11.528,0,0,0,2.34-.972l1.981,1.981,4.62-4.62-1.981-1.982a11.546,11.546,0,0,0,.973-2.341Zm-3.606-.584a10.64,10.64,0,0,1-1.148,2.763l-.187.312,1.831,1.831-3.3,3.3-1.831-1.831-.312.187a10.6,10.6,0,0,1-2.763,1.148l-.349.09v2.582H11.667V24.484l-.349-.091a10.626,10.626,0,0,1-2.763-1.148l-.312-.187L6.412,24.89l-3.3-3.3,1.831-1.831-.187-.312a10.623,10.623,0,0,1-1.148-2.763l-.09-.35H.933V11.667H3.516l.091-.349A10.627,10.627,0,0,1,4.755,8.554l.187-.312L3.11,6.412l3.3-3.3L8.243,4.941l.312-.187a10.6,10.6,0,0,1,2.763-1.148l.349-.09V.933h4.667V3.516l.349.091a10.627,10.627,0,0,1,2.763,1.148l.312.187L21.588,3.11l3.3,3.3L23.059,8.243l.187.312a10.6,10.6,0,0,1,1.148,2.763l.091.349h2.582v4.667H24.484Zm0,0"/>
    <path id="Path_3663" data-name="Path 3663" class="cls-1" d="M147.362,138.668a8.689,8.689,0,0,0-3.58,16.609v.012l.317.13h0l.7.285v-.035a8.61,8.61,0,0,0,2.557.387c.173,0,.343-.006.511-.015v.022l.573-.072.45-.054v-.023a8.69,8.69,0,0,0-1.534-17.245ZM144.8,154.595v-5.058l-.171-.154a4.088,4.088,0,0,1,2.728-7.135,4.244,4.244,0,0,1,.449.024l-2.378,2.38.454,3.164,3.164.454,2.378-2.378a4.254,4.254,0,0,1,.024.448,4.12,4.12,0,0,1-3.181,3.991l-.4.09v4.6A7.761,7.761,0,0,1,144.8,154.595Zm4.092.286V151.22a5.155,5.155,0,0,0,3.58-4.881,5,5,0,0,0-.268-1.634l-.266-.774-3.25,3.251-1.9-.272-.273-1.9,3.252-3.252-.774-.266a5.008,5.008,0,0,0-1.634-.267,5.111,5.111,0,0,0-3.58,8.762v4.159a7.668,7.668,0,1,1,5.114.733Zm0,0" transform="translate(-133.363 -133.362)"/>
  </g>
</svg>
