<svg xmlns="http://www.w3.org/2000/svg" viewBox="0 0 28.205 28.2">
  <defs>
    <style>
      .cls-1 {
        fill: #5c656a;
        stroke: #e5ebee;
        stroke-width: 0.2px;
      }
    </style>
  </defs>
  <path id="formBuilder" class="cls-1" d="M23.167-15985.75v-9.729a4.086,4.086,0,0,1-2.327-3.9,4.077,4.077,0,0,1,2.716-3.637.58.58,0,0,1,.53.072.588.588,0,0,1,.249.479v2.712H25.5v-2.712a.6.6,0,0,1,.245-.479.588.588,0,0,1,.534-.072,4.089,4.089,0,0,1,2.716,3.637,4.083,4.083,0,0,1-2.331,3.9v9.729a1.751,1.751,0,0,1-1.748,1.752A1.751,1.751,0,0,1,23.167-15985.75Zm-1.133-12.976a2.925,2.925,0,0,0,1.913,2.307.579.579,0,0,1,.39.546v10.123a.583.583,0,0,0,.583.582.583.583,0,0,0,.583-.582v-10.119a.58.58,0,0,1,.39-.55,2.914,2.914,0,0,0,1.909-2.307,2.9,2.9,0,0,0-1.133-2.77v2.327a.584.584,0,0,1-.583.583H23.749a.584.584,0,0,1-.583-.583v-2.327A2.913,2.913,0,0,0,22.033-15998.726Zm-5.867,12.393V-15991h-.583a.586.586,0,0,1-.583-.583v-2.335a.583.583,0,0,1,.583-.582h2.335v-7.1a1.752,1.752,0,0,1-1.169-1.653v-2.335a.584.584,0,0,1,.587-.582h2.331a.583.583,0,0,1,.583.582v2.335a1.752,1.752,0,0,1-1.165,1.652v7.1h2.335a.583.583,0,0,1,.583.582v2.335a.586.586,0,0,1-.583.583h-.583v4.665A2.334,2.334,0,0,1,18.5-15984,2.334,2.334,0,0,1,16.166-15986.333Zm1.169,0a1.166,1.166,0,0,0,1.165,1.165,1.166,1.166,0,0,0,1.165-1.165V-15991H17.336Zm3.5-5.835v-1.165H16.166v1.165h4.669Zm-2.917-11.083a.584.584,0,0,0,.583.583.584.584,0,0,0,.583-.583V-16005H17.918ZM2.749-15987.5A1.753,1.753,0,0,1,1-15989.25v-21A1.747,1.747,0,0,1,2.749-16012h21a1.747,1.747,0,0,1,1.752,1.748v5.835H24.336v-2.918H2.166v18.084a.583.583,0,0,0,.583.582H15v1.17Zm21.587-21v-1.752a.584.584,0,0,0-.587-.583h-21a.584.584,0,0,0-.583.583v1.752Z" transform="translate(-0.9 16012.099)"/>
</svg>
