<svg xmlns="http://www.w3.org/2000/svg" viewBox="0 0 22.2 27.047">
  <defs>
    <style>
      .cls-1 {
        fill: #5c656a;
        stroke: #e5ebee;
        stroke-width: 0.2px;
      }
    </style>
  </defs>
  <path id="jobPost" class="cls-1" d="M2.865-15985.153A1.866,1.866,0,0,1,1-15987.017v-11.539a.621.621,0,0,1,.621-.622.621.621,0,0,1,.621.622v11.539a.622.622,0,0,0,.621.621H21.137a.622.622,0,0,0,.621-.621v-23.119a.622.622,0,0,0-.621-.621H2.865a.623.623,0,0,0-.621.621v6.338a.621.621,0,0,1-.621.621A.621.621,0,0,1,1-16003.8v-6.338A1.867,1.867,0,0,1,2.865-16012H21.137a1.867,1.867,0,0,1,1.864,1.865v23.119a1.866,1.866,0,0,1-1.864,1.863Zm3.234-4.5-1.208-1.209a.622.622,0,0,1,0-.88.622.622,0,0,1,.879,0l.768.77,1.652-1.652a.621.621,0,0,1,.879,0,.621.621,0,0,1,0,.878l-2.092,2.094a.628.628,0,0,1-.44.18A.628.628,0,0,1,6.1-15989.652Zm5.9-.906a.622.622,0,0,1-.621-.622.62.62,0,0,1,.621-.62h7.25a.621.621,0,0,1,.622.62.623.623,0,0,1-.622.622Zm-5.9-3.84-1.208-1.209a.621.621,0,0,1,0-.879.62.62,0,0,1,.879,0l.768.769,1.652-1.653a.621.621,0,0,1,.879,0,.624.624,0,0,1,0,.88l-2.092,2.093a.631.631,0,0,1-.44.179A.631.631,0,0,1,6.1-15994.4Zm5.9-.883a.621.621,0,0,1-.621-.623.621.621,0,0,1,.621-.62h7.25a.622.622,0,0,1,.622.62.622.622,0,0,1-.622.623Zm2.549-4.912a.622.622,0,0,1-.622-.621.621.621,0,0,1,.622-.62H18.9a.62.62,0,0,1,.621.62.621.621,0,0,1-.621.621Zm-9.447,0a.621.621,0,0,1-.621-.621v-5.965a.621.621,0,0,1,.621-.621h5.966a.621.621,0,0,1,.622.621v5.965a.622.622,0,0,1-.622.621Zm.622-1.241h4.723v-4.724H5.724Zm-4.542.86a.629.629,0,0,1-.182-.44.629.629,0,0,1,.182-.439.624.624,0,0,1,.44-.181.624.624,0,0,1,.44.181.629.629,0,0,1,.182.439.627.627,0,0,1-.182.44.622.622,0,0,1-.44.183A.622.622,0,0,1,1.182-16000.574Zm13.367-2.6a.621.621,0,0,1-.622-.621.622.622,0,0,1,.622-.621H18.9a.621.621,0,0,1,.621.621.621.621,0,0,1-.621.621Zm0-2.981a.623.623,0,0,1-.622-.621.621.621,0,0,1,.622-.621H18.9a.621.621,0,0,1,.621.621.622.622,0,0,1-.621.621Z" transform="translate(-0.901 16012.101)"/>
</svg>
