<svg xmlns="http://www.w3.org/2000/svg" viewBox="0 0 28 21.101">
  <defs>
    <style>
      .cls-1 {
        fill: #5c656a;
      }
    </style>
  </defs>
  <g id="polls" transform="translate(-205.601 512.706)">
    <path id="Path_3404" data-name="Path 3404" class="cls-1" d="M41.023,166.6H39.757V148.207a1.554,1.554,0,0,0-1.553-1.553H35.373a1.554,1.554,0,0,0-1.553,1.553V166.6H30.6V156.54a1.554,1.554,0,0,0-1.553-1.553H26.219a1.554,1.554,0,0,0-1.553,1.553V166.6H21.45v-5.21a1.554,1.554,0,0,0-1.553-1.553H17.066a1.554,1.554,0,0,0-1.553,1.553v5.21H14.179a.578.578,0,0,0,0,1.155H41.023a.578.578,0,0,0,0-1.155Zm-20.728,0H16.669v-5.21a.4.4,0,0,1,.4-.4H19.9a.4.4,0,0,1,.4.4v5.21Zm9.153,0H25.822V156.54a.4.4,0,0,1,.4-.4h2.831a.4.4,0,0,1,.4.4Zm9.153,0H34.975V148.207a.4.4,0,0,1,.4-.4H38.2a.4.4,0,0,1,.4.4Z" transform="translate(192 -659.361)"/>
  </g>
</svg>
