<svg xmlns="http://www.w3.org/2000/svg" viewBox="0 0 27.998 28.538">
  <defs>
    <style>
      .cls-1 {
        fill: #5c656a;
      }
    </style>
  </defs>
  <path id="formSurvey" class="cls-1" d="M4.557-15983.463a.422.422,0,0,1-.386-.258,1.047,1.047,0,0,1-.036-.333l-3.13-24.9a.421.421,0,0,1,.362-.471l6.132-.771.121-1.382a.424.424,0,0,1,.454-.382l7.916.679a.455.455,0,0,1,.072.008l5.758-.723a.421.421,0,0,1,.47.365l.113.9,6.213.53a.42.42,0,0,1,.285.145.434.434,0,0,1,.1.31l-2.138,25.007a.422.422,0,0,1-.454.382l-.812-.068v.547a.422.422,0,0,1-.422.422Zm.422-.844H24.754v-13.249a.417.417,0,0,1,.418-.418.418.418,0,0,1,.422.418v12.28l.466.04,2.066-24.171-5.614-.479.06.482h2.6a.418.418,0,0,1,.422.418v9.468a.422.422,0,0,1-.422.422.421.421,0,0,1-.418-.422v-9.046H4.979Zm-3.09-24.336,2.246,17.878v-18.164Zm6.04-.76h13.8l-.213-1.708Zm.426-.9,3.741-.47-3.677-.317Zm9.544,21.873a.417.417,0,0,1-.358-.2l-.711-1.142a6.208,6.208,0,0,1-3.862,1.339,6.251,6.251,0,0,1-6.245-6.245,6.255,6.255,0,0,1,6.245-6.249.422.422,0,0,1,.422.422v5.405h5.4a.422.422,0,0,1,.422.422,6.219,6.219,0,0,1-1.756,4.332l.671,1.073h3.8a.418.418,0,0,1,.418.422.416.416,0,0,1-.418.418Zm-10.336-6.245a5.41,5.41,0,0,0,5.4,5.405,5.369,5.369,0,0,0,3.412-1.214l-1.077-1.728a.418.418,0,0,1,.133-.579.418.418,0,0,1,.579.133l.989,1.579a5.424,5.424,0,0,0,1.358-3.179H12.968a.415.415,0,0,1-.418-.418v-5.389A5.411,5.411,0,0,0,7.563-15994.675Zm7.2-1.374a.421.421,0,0,1-.418-.418v-5.827a.421.421,0,0,1,.418-.422,6.241,6.241,0,0,1,3.633,1.165l.948-1.426a.421.421,0,0,1,.35-.186h2.242a.418.418,0,0,1,.418.418.418.418,0,0,1-.418.422H19.916l-.872,1.311a6.232,6.232,0,0,1,1.965,4.545.421.421,0,0,1-.422.418Zm.422-.84h4.971a5.407,5.407,0,0,0-1.583-3.412l-.321.482a.421.421,0,0,1-.619.084.415.415,0,0,1-.08-.55l.374-.562a5.355,5.355,0,0,0-2.741-1.013Z" transform="translate(-1 16012.001)"/>
</svg>
