<svg xmlns="http://www.w3.org/2000/svg" viewBox="0 0 28 29.125">
  <defs>
    <style>
      .cls-1 {
        fill: #5c656a;
      }
    </style>
  </defs>
  <g id="photoAlbums" transform="translate(-1 0.004)">
    <path id="Union_34" data-name="Union 34" class="cls-1" d="M-229-19496.879V-19526h28v29.125Zm1.12-1.121h25.761v-4.48H-227.88Zm2.6-5.6h23.156v-4.793l-6.125-5.615-5.14,5.631,2.692,2.691a.562.562,0,0,1,0,.791.558.558,0,0,1-.793,0l-5.768-5.768Zm-2.6,0h.908l9.372-8.25a.561.561,0,0,1,.766.023l2.656,2.656,5.486-6.008a.543.543,0,0,1,.387-.18.562.562,0,0,1,.4.145l5.782,5.3v-14.969H-227.88Zm3.041-12a3.123,3.123,0,0,1,3.12-3.117,3.124,3.124,0,0,1,3.118,3.121,3.122,3.122,0,0,1-3.118,3.117A3.123,3.123,0,0,1-224.839-19515.605Zm1.12,0a2,2,0,0,0,2,2,2,2,0,0,0,2-2,2,2,0,0,0-2-2A2,2,0,0,0-223.72-19515.6Z" transform="translate(230 19526)"/>
  </g>
</svg>
