<svg xmlns="http://www.w3.org/2000/svg" viewBox="0 0 32 32"><defs><style>.cls-1{fill:#0076ad;}.cls-2{fill:#fff;}</style></defs><g id="bkgd-0076AD"><rect class="cls-1" width="32" height="32"/></g><g id="Email"><path class="cls-2" d="M28,8.71a3.56,3.56,0,0,1-.66,2,6.2,6.2,0,0,1-1.63,1.64l-6.27,4.36-.57.41c-.29.21-.53.38-.72.5s-.42.28-.7.44a4,4,0,0,1-.77.36,2.11,2.11,0,0,1-.67.12h0a2.11,2.11,0,0,1-.67-.12,4,4,0,0,1-.77-.36c-.28-.16-.51-.31-.7-.44s-.43-.29-.72-.5l-.57-.41L9.05,14.29,6.3,12.38a6.66,6.66,0,0,1-1.56-1.54A3.16,3.16,0,0,1,4,9a2.64,2.64,0,0,1,.56-1.74,1.89,1.89,0,0,1,1.58-.7H25.86A2.17,2.17,0,0,1,28,8.71Zm0,3.94V23.29a2.15,2.15,0,0,1-2.14,2.14H6.14A2.15,2.15,0,0,1,4,23.29V12.65a6.93,6.93,0,0,0,1.35,1.17Q10.2,17.11,12,18.44c.51.37.92.67,1.24.88a7.66,7.66,0,0,0,1.26.64,3.87,3.87,0,0,0,1.48.33h0A3.87,3.87,0,0,0,17.49,20a8.09,8.09,0,0,0,1.26-.64c.32-.21.73-.51,1.24-.88q2.28-1.65,6.67-4.62A7.26,7.26,0,0,0,28,12.65Z"/></g></svg>
