<svg xmlns="http://www.w3.org/2000/svg" viewBox="0 0 32 32"><defs><style>.cls-1{fill:#0076ad;}.cls-2{fill:#fff;}</style></defs><g id="bkgd-0076AD"><rect class="cls-1" width="32" height="32"/></g><g id="Link"><path class="cls-2" d="M26.93,21.14a3.65,3.65,0,0,1-1.14,2.72l-2,2a3.7,3.7,0,0,1-2.72,1.11,3.66,3.66,0,0,1-2.73-1.14L15.61,23A3.7,3.7,0,0,1,14.5,20.3a3.76,3.76,0,0,1,1.18-2.8L14.5,16.32a3.75,3.75,0,0,1-2.79,1.18A3.72,3.72,0,0,1,9,16.37L6.2,13.59a3.72,3.72,0,0,1-1.13-2.73A3.65,3.65,0,0,1,6.21,8.14l2-2A3.7,3.7,0,0,1,10.9,5.07a3.66,3.66,0,0,1,2.73,1.14L16.39,9A3.7,3.7,0,0,1,17.5,11.7a3.76,3.76,0,0,1-1.18,2.8l1.18,1.18A3.89,3.89,0,0,1,23,15.62l2.78,2.79A3.72,3.72,0,0,1,26.93,21.14Zm-12-9.44a1.23,1.23,0,0,0-.37-.91L11.81,8a1.25,1.25,0,0,0-.91-.38A1.29,1.29,0,0,0,10,8L8,10a1.23,1.23,0,0,0-.38.9,1.25,1.25,0,0,0,.38.91l2.78,2.78a1.25,1.25,0,0,0,.91.37,1.3,1.3,0,0,0,1-.42l-.26-.25L12.14,14a1.64,1.64,0,0,1-.2-.25,1,1,0,0,1-.18-.34,1.44,1.44,0,0,1,0-.37A1.3,1.3,0,0,1,13,11.71a1.44,1.44,0,0,1,.37,0,1,1,0,0,1,.34.18,1.64,1.64,0,0,1,.25.2l.29.28.25.26A1.32,1.32,0,0,0,14.94,11.7Zm9.42,9.44a1.25,1.25,0,0,0-.38-.91L21.2,17.45a1.25,1.25,0,0,0-.91-.38,1.27,1.27,0,0,0-1,.43l.26.25.28.29a1.64,1.64,0,0,1,.2.25,1,1,0,0,1,.18.34,1.44,1.44,0,0,1,.05.37A1.3,1.3,0,0,1,19,20.29a1.44,1.44,0,0,1-.37-.05,1,1,0,0,1-.34-.18,1.64,1.64,0,0,1-.25-.2l-.29-.28-.25-.26a1.28,1.28,0,0,0-.44,1,1.23,1.23,0,0,0,.37.91L20.19,24a1.24,1.24,0,0,0,.91.36A1.29,1.29,0,0,0,22,24l2-2A1.23,1.23,0,0,0,24.36,21.14Z"/></g></svg>
