<?xml version="1.0" encoding="utf-8"?>
<!-- Generator: Adobe Illustrator 24.2.1, SVG Export Plug-In . SVG Version: 6.00 Build 0)  -->
<svg version="1.1" id="Layer_1" xmlns="http://www.w3.org/2000/svg" xmlns:xlink="http://www.w3.org/1999/xlink" x="0px" y="0px"
	 viewBox="0 0 32 32" style="enable-background:new 0 0 32 32;" xml:space="preserve">
<style type="text/css">
	.st0{fill:#E60023;}
</style>
<g>
	<path class="st0" d="M15.9,0.2C7.1,0.2,0,7.3,0,16.1c0,6.7,4.2,12.5,10.1,14.8c-0.1-1.3-0.3-3.2,0.1-4.6c0.3-1.2,1.9-7.9,1.9-7.9
		s-0.5-1-0.5-2.4c0-2.2,1.3-3.9,2.9-3.9c1.4,0,2,1,2,2.2c0,1.4-0.9,3.4-1.3,5.3c-0.4,1.6,0.8,2.9,2.4,2.9c2.8,0,5-3,5-7.3
		c0-3.8-2.7-6.5-6.6-6.5c-4.5,0-7.2,3.4-7.2,6.9c0,1.4,0.5,2.8,1.2,3.6c0.1,0.2,0.1,0.3,0.1,0.5c-0.1,0.5-0.4,1.6-0.4,1.8
		C9.4,22,9.3,22,9,21.9c-2-0.9-3.2-3.8-3.2-6.2c0-5,3.6-9.6,10.5-9.6c5.5,0,9.8,3.9,9.8,9.2c0,5.5-3.5,9.9-8.2,9.9
		c-1.6,0-3.1-0.8-3.6-1.8c0,0-0.8,3-1,3.8c-0.4,1.4-1.3,3.1-2,4.2c1.5,0.5,3.1,0.7,4.7,0.7c8.8,0,15.9-7.1,15.9-15.9
		C31.8,7.3,24.7,0.2,15.9,0.2z"/>
</g>
</svg>
