<?xml version="1.0" encoding="utf-8"?>
<!-- Generator: Adobe Illustrator 24.2.1, SVG Export Plug-In . SVG Version: 6.00 Build 0)  -->
<svg version="1.1" id="Layer_1" xmlns="http://www.w3.org/2000/svg" xmlns:xlink="http://www.w3.org/1999/xlink" x="0px" y="0px"
	 viewBox="0 0 32 32" style="enable-background:new 0 0 32 32;" xml:space="preserve">
<style type="text/css">
	.st0{fill:#FF0000;}
	.st1{fill:#FFFFFF;}
</style>
<g id="XMLID_184_">
	<path id="XMLID_182_" class="st0" d="M30,8.9c-0.3-1.3-1.3-2.3-2.6-2.6C25.1,5.7,16,5.7,16,5.7s-9.1,0-11.4,0.6
		C3.3,6.7,2.3,7.7,2,8.9C1.4,11.2,1.4,16,1.4,16s0,4.8,0.6,7.1c0.3,1.3,1.3,2.3,2.6,2.6C6.9,26.3,16,26.3,16,26.3s9.1,0,11.4-0.6
		c1.3-0.3,2.2-1.3,2.6-2.6c0.6-2.3,0.6-7.1,0.6-7.1S30.6,11.2,30,8.9z"/>
	<polygon id="XMLID_1355_" class="st1" points="13,20.3 20.6,16 13,11.7 	"/>
</g>
</svg>
