<?xml version="1.0" encoding="utf-8"?>
<svg xmlns="http://www.w3.org/2000/svg" xmlns:xlink="http://www.w3.org/1999/xlink" version="1.1" baseProfile="tiny" viewBox="0 0 18 18">
<g>
  <path d="M10.3,16.4c-2.1,2.1-5.6,2.1-7.8,0s-2.1-5.6,0-7.8L10,1.2c1.6-1.6,4.1-1.6,5.7,0s1.6,4.1,0,5.7L8.5,14
		    c-1,1-2.6,1-3.5,0s-1-2.6,0-3.5L11.4,4l1.1,1.1L6,11.5c-0.4,0.4-0.4,1,0,1.4c0.4,0.4,1,0.4,1.4,0l7.2-7.2c1-1,1-2.6,0-3.5
		    s-2.6-1-3.5,0L3.6,9.7c-1.6,1.6-1.6,4.1,0,5.7s4.1,1.6,5.7,0L16,8.6l1.1,1.1C17.1,9.7,12,14.7,10.3,16.4z"/>
</g>
</svg>