<?xml version="1.0" encoding="utf-8"?>
<svg xmlns="http://www.w3.org/2000/svg" xmlns:xlink="http://www.w3.org/1999/xlink" version="1.1" baseProfile="tiny" viewBox="0 0 18 18">
<g>
  <path d="M16,2H2C0.896,2,0,2.896,0,4v10c0,1.104,0.896,2,2,2h14c1.104,0,2-0.896,2-2V4C18,2.896,17.104,2,16,2z
		 M16,13c0,0.553-0.447,1-1,1H3c-0.553,0-1-0.447-1-1V5c0-0.114,0.03-0.22,0.065-0.322c1.944,1.517,4.206,3.109,5.951,4.537
		c0.998,0.816,0.998,0.816,2.013-0.014c1.759-1.439,3.998-3.017,5.911-4.5C15.971,4.797,16,4.894,16,5V13z"/>
</g>
</svg>