<?xml version="1.0" encoding="utf-8"?>
<svg xmlns="http://www.w3.org/2000/svg" xmlns:xlink="http://www.w3.org/1999/xlink" version="1.1" baseProfile="tiny" viewBox="0 0 18 18">
<g>
  <path d="M1.7,3.9c0.7-0.7,1.4-1.3,1.7-1.2c0.5,0.2,0,1-0.3,1.5c-0.2,0.4-2.8,3.9-2.8,6.3c0,1.3,0.5,2.3,1.3,3
		    c0.7,0.6,1.7,0.7,2.6,0.5c1.1-0.3,1.9-1.4,3-2.7c1.2-1.5,2.8-3.4,4-3.4c1.6,0,1.6,1,1.7,1.8c-3.7,0.6-5.3,3.6-5.3,5.3
		    s1.4,3.1,3.2,3.1c1.6,0,4.3-1.3,4.6-6H18V9.4h-2.4c-0.1-1.6-1.1-4.2-4-4.2C9.3,5.2,7.4,7.1,6.7,8c-0.6,0.7-2,2.5-2.3,2.7
		    c-0.2,0.3-0.7,0.8-1.1,0.8c-0.4,0-0.7-0.8-0.4-1.9c0.3-1.1,1.4-2.8,1.8-3.5C5.5,5,6.1,4.3,6.1,2.9c0-2.2-1.6-2.8-2.5-2.8
		    c-1.3,0-2.4,1-2.7,1.2C0.5,1.7,0.2,2,0,2.3L1.7,3.9z M10.9,15.5c-0.3,0-0.7-0.3-0.7-0.7c0-0.6,0.7-2.2,2.8-2.7
		    C12.8,14.7,11.6,15.5,10.9,15.5z"/>
</g>
</svg>