<?xml version="1.0" encoding="utf-8"?>
<svg xmlns="http://www.w3.org/2000/svg" xmlns:xlink="http://www.w3.org/1999/xlink" version="1.1" baseProfile="tiny" viewBox="0 0 18 18">
<g>
    <path d="M17.511,17.977l-6.158-0.962c-0.291-0.201-0.438-0.393-0.483-0.724l2.001-1.994
		l-2.584-2.572c-0.396-0.396-0.396-1.036-0.001-1.431l0,0c0.396-0.395,1.039-0.395,1.436,0.001l2.584,2.573l2.033-2.027
		c0.332,0.045,0.471,0.207,0.712,0.496l0.979,6.123C18.075,17.79,17.843,18.022,17.511,17.977z M7.719,7.688
		c-0.395,0.395-1.034,0.395-1.43-0.001L3.717,5.116L1.691,7.142C1.36,7.097,1.223,6.935,0.981,6.646L0.006,0.522
		C-0.04,0.192,0.191-0.04,0.522,0.006L6.66,0.968c0.289,0.201,0.436,0.393,0.481,0.724L5.146,3.686l2.571,2.572
		C8.113,6.653,8.114,7.294,7.719,7.688L7.719,7.688z"/>
</g>
</svg>