<?xml version="1.0" encoding="utf-8"?>
<svg xmlns="http://www.w3.org/2000/svg" xmlns:xlink="http://www.w3.org/1999/xlink" version="1.1" baseProfile="tiny" viewBox="0 0 18 18">
<g>
   <path fill-rule="evenodd" d="M9.377,13.915c-1.238,1.242-3.246,1.242-4.484,0l-0.794-0.797
		c-1.238-1.242-1.238-3.257,0-4.499l7.675-7.698c1.238-1.243,3.245-1.243,4.483,0l0.794,0.796c1.238,1.242,1.238,3.257,0,4.499
		L9.377,13.915z M3.49,16.967c0,0-1.155,0-2.301,0c-2.114,0.332-0.793-1.723-0.793-1.723l0.092-0.346
		c0.807-1.077,1.625-2.174,1.625-2.174l3.171,3.182L3.49,16.967z M8,16h9c0.552,0,1,0.447,1,1s-0.448,1-1,1H8c-0.553,0-1-0.447-1-1
		S7.447,16,8,16z"/>
</g>
</svg>