<?xml version="1.0" encoding="utf-8"?>
<svg xmlns="http://www.w3.org/2000/svg" xmlns:xlink="http://www.w3.org/1999/xlink" version="1.1" baseProfile="tiny" viewBox="0 0 18 18">
<g>
    <path d="M17.731,17.72L17.731,17.72c-0.395,0.396-1.034,0.396-1.431,0l-2.573-2.582
		l-2.025,2.033c-0.331-0.045-0.469-0.207-0.709-0.498l-0.976-6.146c-0.046-0.332,0.186-0.564,0.516-0.519l6.136,0.966
		c0.289,0.202,0.436,0.395,0.481,0.727l-1.994,2.002l2.574,2.582C18.125,16.682,18.126,17.324,17.731,17.72z M7.522,7.979
		L1.361,7.017C1.07,6.815,0.923,6.624,0.877,6.293L2.88,4.298L0.298,1.727c-0.396-0.396-0.396-1.036-0.001-1.431l0,0
		c0.396-0.395,1.039-0.395,1.437,0.001l2.582,2.572l2.033-2.026C6.681,0.888,6.819,1.05,7.061,1.339l0.98,6.123
		C8.087,7.792,7.854,8.024,7.522,7.979z"/>
</g>
</svg>