<?xml version="1.0" encoding="utf-8"?>
<svg xmlns="http://www.w3.org/2000/svg" xmlns:xlink="http://www.w3.org/1999/xlink" version="1.1" baseProfile="tiny" viewBox="0 0 18 18">
<g>
  <path d="M9.083,1c0.56,0,0.953,0.133,0.953,1.575c0,2.171-0.139,5.648,0.527,5.747
		c0.018,0.003,0.033,0.004,0.051,0.004c1.149,0,1.28-6.033,2.709-6.033c0.021,0,0.045,0.002,0.067,0.005
		c2.354,0.335-1.804,6.861,0.136,7.16c0.014,0.002,0.027,0.003,0.041,0.003c0.796,0,1.378-3.38,1.9-3.942
		c0.307-0.331,0.569-0.464,0.787-0.464c0.606,0.001,0.855,1.03,0.699,1.625c-0.121,0.329-3.9,8.885-3.507,10.321
		c-1.028,0-6.085-0.004-7.022-0.004c0-0.957-0.762-2.136-1.15-2.772c-0.876-1.435-3.731-4.209-3.731-4.209S0.591,8.729,1.208,8.252
		c0.247-0.191,0.421-0.302,0.599-0.302c0.264,0,0.533,0.246,1.058,0.835c0.796,0.897,1.947,2.297,2.522,2.297
		c0.058,0,0.109-0.014,0.155-0.044c0.733-0.486,0.302-2.032,0.121-2.655c-0.233-0.797-0.676-2.37-1.286-3.996
		C3.931,3.202,4.428,2.716,4.967,2.716c0.324,0,0.664,0.176,0.823,0.479c0.678,1.57,1.369,5.07,2.104,5.07
		c0.013,0,0.025-0.001,0.038-0.003C8.52,8.166,8.049,3.36,8.199,2.548C8.198,1.479,8.525,1,9.083,1 M9.083,0
		C8.45,0,7.899,0.314,7.573,0.861C7.331,1.268,7.208,1.795,7.2,2.47C7.157,2.803,7.163,3.31,7.187,4.132
		C7.029,3.636,6.873,3.179,6.708,2.799L6.693,2.764L6.675,2.73C6.351,2.115,5.681,1.717,4.967,1.717
		c-0.588,0-1.111,0.268-1.434,0.733C3.252,2.856,3.007,3.584,3.439,4.739c0.541,1.44,0.949,2.844,1.192,3.684l0.071,0.243
		c0.111,0.379,0.176,0.673,0.212,0.899C4.557,9.2,4.157,8.743,3.91,8.462l-0.299-0.34C3.099,7.547,2.57,6.951,1.806,6.951
		c-0.507,0-0.89,0.264-1.21,0.511c-0.845,0.654-0.789,1.89,0.143,3.148l0.048,0.065l0.059,0.057c0.769,0.748,2.91,2.926,3.574,4.014
		l0.076,0.124c0.325,0.527,0.928,1.511,0.928,2.127v0.999h0.999l3.371,0.002L13.446,18h1.311l-0.347-1.264
		c-0.025-0.255,0.111-1.786,3.271-9.213c0.119-0.278,0.193-0.455,0.209-0.498l0.017-0.046l0.013-0.046
		c0.195-0.747,0.023-1.667-0.419-2.239c-0.317-0.412-0.76-0.639-1.247-0.64c-0.436,0-0.858,0.18-1.265,0.534
		c0.202-0.972,0.231-1.841-0.186-2.49c-0.197-0.307-0.578-0.692-1.273-0.792c-0.078-0.01-0.144-0.015-0.208-0.015
		c-1.345,0-1.866,1.481-2.299,3.232c0.001-0.35,0.004-0.677,0.006-0.954c0.003-0.35,0.006-0.687,0.006-0.998
		C11.035,1.871,11.035,0,9.083,0L9.083,0z"/>
</g>
</svg>