<?xml version="1.0" encoding="utf-8"?>
<svg xmlns="http://www.w3.org/2000/svg" xmlns:xlink="http://www.w3.org/1999/xlink" version="1.1" baseProfile="tiny" viewBox="0 0 18 18">
<g>
  <path fill-rule="evenodd" d="M17.377,14.915c-1.238,1.242-3.246,1.242-4.484,0l-0.794-0.797
		c-1.238-1.242-1.238-3.257,0-4.499L18,3.7v10.589L17.377,14.915z M13,4H1C0.447,4,0,3.552,0,3V1c0-0.552,0.447-1,1-1h12
		c0.553,0,1,0.448,1,1v2C14,3.552,13.553,4,13,4z M1,7h7c0.553,0,1,0.448,1,1v2c0,0.553-0.447,1-1,1H1c-0.553,0-1-0.447-1-1V8
		C0,7.448,0.447,7,1,7z M1,14h4c0.553,0,1,0.447,1,1v2c0,0.553-0.447,1-1,1H1c-0.553,0-1-0.447-1-1v-2C0,14.447,0.447,14,1,14z
		 M8.488,15.898c0.806-1.077,1.625-2.174,1.625-2.174l3.171,3.182l-1.793,1.061c0,0-1.156,0-2.303,0
		c-2.113,0.332-0.792-1.723-0.792-1.723L8.488,15.898z"/>
</g>
</svg>