<?xml version="1.0" encoding="utf-8"?>
<svg xmlns="http://www.w3.org/2000/svg" xmlns:xlink="http://www.w3.org/1999/xlink" version="1.1" baseProfile="tiny" viewBox="0 0 18 18">
<g>
  <path d="M3,13.001h5v-0.17c0-0.002-0.004-0.003-0.004-0.004V9.81
		c0-1.418-1.447-1.972-1.863-2.484h0.002C5.422,6.496,4.989,5.896,4.989,4.696C4.989,2.103,7.008,0,9.5,0
		c2.49,0,4.511,2.103,4.511,4.696c0,1.202-0.434,1.8-1.146,2.63l0.002-0.001c-0.416,0.513-1.861,1.066-1.861,2.484v3.018
		c0,0.002-0.006,0.004-0.006,0.006v0.168h5v3H3V13.001z M3.5,17.001h12c0.275,0,0.5,0.225,0.5,0.5s-0.225,0.5-0.5,0.5h-12
		c-0.276,0-0.5-0.225-0.5-0.5S3.224,17.001,3.5,17.001z"/>
</g>
</svg>