<?xml version="1.0" encoding="utf-8"?>
<svg xmlns="http://www.w3.org/2000/svg" xmlns:xlink="http://www.w3.org/1999/xlink" version="1.1" baseProfile="tiny" viewBox="0 0 18 18">
<g>
  <path d="M13.5,16.5c-1.2,0.9-2.7,1.4-4.6,1.4c-1.3,0-2.5-0.2-3.5-0.5s-1.9-0.9-2.7-1.8l1.8-1.7c0.6,0.6,1.3,1,2,1.3
		    C7.2,15.4,8,15.5,9,15.5c1.1,0,2-0.2,2.7-0.7c0.6-0.5,0.9-1.1,0.9-2c0-0.8-0.2-1.4-0.7-1.8c-0.2-0.2-0.5-0.4-0.7-0.5
		    c-0.3-0.1-0.7-0.2-1.2-0.3l-1-0.1l-1-0.1C6.5,9.8,5.4,9.3,4.6,8.6C3.8,7.8,3.3,6.7,3.3,5.2c0-1.5,0.5-2.8,1.6-3.7s2.5-1.4,4.3-1.4
		    c1.2,0,2.2,0.2,3,0.5c0.9,0.3,1.7,0.8,2.4,1.5l-1.7,1.7c-0.5-0.5-1.1-0.8-1.7-1c-0.6-0.2-1.3-0.3-2.1-0.3c-1,0-1.8,0.3-2.4,0.8
		    c-0.6,0.5-0.8,1.2-0.8,2c0,0.7,0.2,1.2,0.7,1.6c0.5,0.4,1.1,0.7,2,0.8l1,0.1l1,0.1c0.8,0.1,1.5,0.3,2,0.5c0.5,0.2,0.9,0.5,1.3,0.8
		    c1,0.8,1.4,2,1.4,3.6C15.3,14.4,14.7,15.6,13.5,16.5z"/>
</g>
</svg>