<svg xmlns="http://www.w3.org/2000/svg" width="24" height="18" viewBox="0 0 24 18">
  <path id="caption-camera" d="M1891,537.75a3.382,3.382,0,1,0,3.6,3.375A3.493,3.493,0,0,0,1891,537.75Zm9.6-3.375h-2.88a1.066,1.066,0,0,1-.948-.64l-.744-2.094a1.067,1.067,0,0,0-.948-.64h-8.16a1.066,1.066,0,0,0-.948.64l-.744,2.094a1.067,1.067,0,0,1-.948.64h-2.88a2.336,2.336,0,0,0-2.4,2.25V546.75a2.336,2.336,0,0,0,2.4,2.25h19.2a2.336,2.336,0,0,0,2.4-2.25V536.625A2.336,2.336,0,0,0,1900.6,534.375ZM1891,546.75a5.637,5.637,0,1,1,6-5.625A5.822,5.822,0,0,1,1891,546.75Zm8.76-8.552a.789.789,0,1,1,.84-.787A.815.815,0,0,1,1899.76,538.2Z" transform="translate(-1879 -531)" fill="#fff"/>
</svg>
