<svg xmlns="http://www.w3.org/2000/svg" viewBox="0 0 28.2 24.479">
  <defs>
    <style>
      .cls-1 {
        fill: #5c656a;
        stroke: #e5ebee;
        stroke-width: 0.2px;
      }
    </style>
  </defs>
  <path id="business" class="cls-1" d="M15.458-15988.292l-2.391-2.393-1,1a1.725,1.725,0,0,1-1.226.508,1.708,1.708,0,0,1-1.222-.508l-.326-.326a1.7,1.7,0,0,1-.5-1.053,1.717,1.717,0,0,1-1.052-.5l-.326-.324a1.722,1.722,0,0,1-.5-1.053,1.713,1.713,0,0,1-1.052-.5l-.326-.322a1.723,1.723,0,0,1-.5-1.053,1.722,1.722,0,0,1-1.052-.5l-.322-.326a1.7,1.7,0,0,1-.509-1.225,1.7,1.7,0,0,1,.509-1.223l1-1-1.809-1.814-1.665-1.66a.636.636,0,0,1,0-.9.629.629,0,0,1,.9,0l1.665,1.664,12.609,12.605a.688.688,0,0,0,.974,0,.693.693,0,0,0,0-.979l-3.561-3.561a.638.638,0,0,1,0-.9.637.637,0,0,1,.9,0l3.561,3.564a.683.683,0,0,0,.487.2.686.686,0,0,0,.491-.2.693.693,0,0,0,0-.979l-3.565-3.561a.636.636,0,0,1,0-.9.634.634,0,0,1,.9,0l3.565,3.564a.691.691,0,0,0,.974,0,.7.7,0,0,0,.2-.492.686.686,0,0,0-.2-.486l-3.561-3.564a.633.633,0,0,1,0-.9.632.632,0,0,1,.9,0l3.565,3.561a.693.693,0,0,0,.978,0,.7.7,0,0,0,0-.979l-1.33-1.33-7.339-7.34-2.813-.242-.174.877a2.935,2.935,0,0,1-3.452,2.291,2.93,2.93,0,0,1-2.291-3.451l.287-1.432a5.233,5.233,0,0,1,6.139-4.092l6.27,1.123a1.852,1.852,0,0,1,.443-.709l1.339-1.338a1.885,1.885,0,0,1,1.352-.559,1.883,1.883,0,0,1,1.348.559l5.7,5.7a1.911,1.911,0,0,1,0,2.705L26.2-16000.8l-3.222,3.223.878.883a1.962,1.962,0,0,1,0,2.773,1.979,1.979,0,0,1-1.3.57,1.958,1.958,0,0,1-.57,1.3,1.942,1.942,0,0,1-1.3.57,1.963,1.963,0,0,1-.57,1.3,1.959,1.959,0,0,1-1.309.574,1.936,1.936,0,0,1-.57,1.3,1.947,1.947,0,0,1-1.387.572A1.954,1.954,0,0,1,15.458-15988.292Zm-5.27-3.271a.465.465,0,0,0,0,.652l.326.326a.462.462,0,0,0,.652,0l.939-.939-.978-.979Zm-1.874-1.877a.467.467,0,0,0-.135.326.457.457,0,0,0,.135.326l.326.324a.462.462,0,0,0,.652,0l.935-.934-.978-.979Zm-1.874-1.875a.457.457,0,0,0,0,.652l.326.326a.457.457,0,0,0,.648,0l.939-.939-.978-.975Zm-1.878-1.873a.46.46,0,0,0,0,.648l.326.324a.455.455,0,0,0,.652,0l.935-.934-.974-.979Zm6.465-8.84,3.6.316a.655.655,0,0,1,.4.184l7.052,7.053,2.774-2.77L18.7-16007.4l-.761-.762-6.174-1.109h-.017a3.955,3.955,0,0,0-4.652,3.092l-.291,1.436a1.647,1.647,0,0,0,.248,1.248,1.64,1.64,0,0,0,1.052.7,1.654,1.654,0,0,0,1.952-1.295l.291-1.436a.63.63,0,0,1,.622-.508Zm9.913-4.514-1.339,1.34a.631.631,0,0,0-.187.451.635.635,0,0,0,.187.453l6.148,6.152,1.8-1.791a.657.657,0,0,0,.187-.453.653.653,0,0,0-.187-.451l-5.7-5.7a.636.636,0,0,0-.452-.186A.622.622,0,0,0,20.94-16010.542Zm4.431,6.4a.633.633,0,0,1,.635-.635.636.636,0,0,1,.635.635.636.636,0,0,1-.635.637A.634.634,0,0,1,25.371-16004.138Z" transform="translate(-0.901 16012.099)"/>
</svg>
