<svg xmlns="http://www.w3.org/2000/svg" viewBox="0 0 28 28">
  <defs>
    <style>
      .cls-1 {
        fill: #5c656a;
      }
    </style>
  </defs>
  <g id="facility" transform="translate(0 0)">
    <g id="Group_592" data-name="Group 592" transform="translate(0 0)">
      <path id="Path_4407" data-name="Path 4407" class="cls-1" d="M26.533,24.2h-1.4V-.533A.441.441,0,0,0,24.667-1H1.333a.441.441,0,0,0-.467.467V24.2h-1.4A.441.441,0,0,0-1,24.667v1.867A.441.441,0,0,0-.533,27H26.533A.441.441,0,0,0,27,26.533V24.667A.441.441,0,0,0,26.533,24.2ZM1.8-.067H24.2V24.2h-7V19.067a.441.441,0,0,0-.467-.467H9.267a.441.441,0,0,0-.467.467V24.2h-7ZM9.733,24.2V19.533h2.8V24.2Zm3.733-4.667h2.8V24.2h-2.8Zm12.6,6.533H-.067v-.933H26.067v.933Z" transform="translate(1 1)"/>
      <path id="Path_4408" data-name="Path 4408" class="cls-1" d="M87.132,40.967H83.4a.441.441,0,0,0-.466.466v2.8a.441.441,0,0,0,.466.466h3.731a.441.441,0,0,0,.466-.466v-2.8A.441.441,0,0,0,87.132,40.967Zm-.466,2.8h-2.8V41.9h2.8Z" transform="translate(-78.268 -38.635)"/>
      <path id="Path_4409" data-name="Path 4409" class="cls-1" d="M87.132,133.295H83.4a.441.441,0,0,0-.466.466v2.8a.441.441,0,0,0,.466.466h3.731a.441.441,0,0,0,.466-.466v-2.8A.441.441,0,0,0,87.132,133.295Zm-.466,2.8h-2.8v-1.865h2.8Z" transform="translate(-78.268 -125.827)"/>
      <path id="Path_4410" data-name="Path 4410" class="cls-1" d="M209.3,137.027h3.731a.441.441,0,0,0,.466-.466v-2.8a.441.441,0,0,0-.466-.466H209.3a.441.441,0,0,0-.466.466v2.8A.441.441,0,0,0,209.3,137.027Zm.466-2.8h2.8v1.865h-2.8Z" transform="translate(-197.168 -125.828)"/>
      <path id="Path_4411" data-name="Path 4411" class="cls-1" d="M335.2,137.027h3.731a.441.441,0,0,0,.466-.466v-2.8a.441.441,0,0,0-.466-.466H335.2a.441.441,0,0,0-.466.466v2.8A.441.441,0,0,0,335.2,137.027Zm.466-2.8h2.8v1.865h-2.8Z" transform="translate(-316.069 -125.828)"/>
      <path id="Path_4412" data-name="Path 4412" class="cls-1" d="M209.3,229.355h3.731a.441.441,0,0,0,.466-.466v-2.8a.441.441,0,0,0-.466-.466H209.3a.441.441,0,0,0-.466.466v2.8A.441.441,0,0,0,209.3,229.355Zm.466-2.8h2.8v1.865h-2.8Z" transform="translate(-197.168 -213.023)"/>
      <path id="Path_4413" data-name="Path 4413" class="cls-1" d="M335.2,229.355h3.731a.441.441,0,0,0,.466-.466v-2.8a.441.441,0,0,0-.466-.466H335.2a.441.441,0,0,0-.466.466v2.8A.441.441,0,0,0,335.2,229.355Zm.466-2.8h2.8v1.865h-2.8Z" transform="translate(-316.069 -213.023)"/>
      <path id="Path_4414" data-name="Path 4414" class="cls-1" d="M87.132,225.623H83.4a.441.441,0,0,0-.466.466v2.8a.441.441,0,0,0,.466.466h3.731a.441.441,0,0,0,.466-.466v-2.8A.441.441,0,0,0,87.132,225.623Zm-.466,2.8h-2.8v-1.865h2.8Z" transform="translate(-78.268 -213.022)"/>
      <path id="Path_4415" data-name="Path 4415" class="cls-1" d="M209.3,44.7h3.731a.441.441,0,0,0,.466-.466v-2.8a.441.441,0,0,0-.466-.466H209.3a.441.441,0,0,0-.466.466v2.8A.441.441,0,0,0,209.3,44.7Zm.466-2.8h2.8v1.865h-2.8Z" transform="translate(-197.168 -38.636)"/>
      <path id="Path_4416" data-name="Path 4416" class="cls-1" d="M335.2,44.7h3.731a.441.441,0,0,0,.466-.466v-2.8a.441.441,0,0,0-.466-.466H335.2a.441.441,0,0,0-.466.466v2.8A.441.441,0,0,0,335.2,44.7Zm.466-2.8h2.8v1.865h-2.8Z" transform="translate(-316.069 -38.636)"/>
      <path id="Path_4417" data-name="Path 4417" class="cls-1" d="M192.516,318.885h5.6a.466.466,0,1,0,0-.933h-5.6a.466.466,0,1,0,0,.933Z" transform="translate(-181.314 -300.218)"/>
    </g>
  </g>
</svg>
