<svg xmlns="http://www.w3.org/2000/svg" viewBox="0 0 28.301 28.302">
  <defs>
    <style>
      .cls-1 {
        fill: #5c656a;
        stroke: #e5ebee;
        stroke-width: 0.3px;
      }
    </style>
  </defs>
  <path id="faq" class="cls-1" d="M2.749-15984A1.75,1.75,0,0,1,1-15985.746v-24.5A1.752,1.752,0,0,1,2.749-16012h24.5a1.756,1.756,0,0,1,1.752,1.752v24.5a1.753,1.753,0,0,1-1.752,1.748Zm-.346-1.395H27.647v-25.288l-25.244,0Zm11.722-3.854V-15991h1.752v1.752Zm0-3.5v-4.377A.879.879,0,0,1,15-15998a3.5,3.5,0,0,0,3.5-3.5,3.505,3.505,0,0,0-3.5-3.5,3.5,3.5,0,0,0-3.5,3.5H9.749a5.255,5.255,0,0,1,5.252-5.248,5.255,5.255,0,0,1,5.248,5.248,5.256,5.256,0,0,1-4.372,5.18v3.573Z" transform="translate(-0.851 16012.149)"/>
</svg>
