<svg xmlns="http://www.w3.org/2000/svg" viewBox="0 0 20 28.439">
  <defs>
    <style>
      .cls-1 {
        fill: #5c656a;
      }
    </style>
  </defs>
  <path id="Meeting_Agenda" data-name="Meeting Agenda" class="cls-1" d="M1.431-15983.562a.427.427,0,0,1-.431-.424v-20.541a.428.428,0,0,1,.431-.426.428.428,0,0,1,.428.426v20.107H20.142v-23.393H15.421v1.352a.427.427,0,0,1-.428.428H6.707a.427.427,0,0,1-.428-.428v-1.352H1.859v1.352a.429.429,0,0,1-.428.43.429.429,0,0,1-.431-.43v-1.781a.43.43,0,0,1,.431-.43H6.279v-1.713a.425.425,0,0,1,.428-.426H8.5v-.762a.429.429,0,0,1,.431-.43H12.45a.429.429,0,0,1,.431.43v.762h2.113a.425.425,0,0,1,.428.426v1.713H20.57a.43.43,0,0,1,.431.43v24.256a.427.427,0,0,1-.431.424Zm5.706-23.328h7.425v-3.062H7.137Zm2.222-3.92h2.664v-.334H9.359Zm-5.123,24.5a.429.429,0,0,1-.428-.43v-2.375a.429.429,0,0,1,.428-.43H6.609a.432.432,0,0,1,.431.43v2.375a.429.429,0,0,1-.431.43Zm.431-.859H6.181v-1.514H4.666Zm3.726-.51a.43.43,0,0,1-.431-.428.431.431,0,0,1,.431-.432h9.259a.431.431,0,0,1,.431.432.43.43,0,0,1-.431.428Zm-4.156-3.387a.429.429,0,0,1-.428-.43v-2.373a.431.431,0,0,1,.428-.43H6.609a.432.432,0,0,1,.431.43v2.373a.429.429,0,0,1-.431.43Zm.431-.857H6.181v-1.516H4.666Zm3.726-.469a.428.428,0,0,1-.431-.43.43.43,0,0,1,.431-.428h9.259a.43.43,0,0,1,.431.428.428.428,0,0,1-.431.43Zm-4.156-3.369a.43.43,0,0,1-.428-.432v-2.373a.429.429,0,0,1,.428-.43H6.609a.429.429,0,0,1,.431.43v2.373a.431.431,0,0,1-.431.432Zm.431-.861H6.181v-1.512H4.666Zm3.726-.482a.429.429,0,0,1-.431-.428.429.429,0,0,1,.431-.43h9.259a.429.429,0,0,1,.431.43.429.429,0,0,1-.431.428Zm-4.156-3.412a.43.43,0,0,1-.428-.43v-2.434a.431.431,0,0,1,.428-.43H6.609a.432.432,0,0,1,.431.43v2.434a.43.43,0,0,1-.431.43Zm.431-.918H6.181v-1.457H4.666Zm3.726-.383a.43.43,0,0,1-.431-.428.432.432,0,0,1,.431-.432h9.259a.432.432,0,0,1,.431.432.43.43,0,0,1-.431.428Z" transform="translate(-1 16012.001)"/>
</svg>
