<svg xmlns="http://www.w3.org/2000/svg" viewBox="0 0 28.003 28.004">
  <defs>
    <style>
      .cls-1 {
        fill: #5c656a;
      }
    </style>
  </defs>
  <g id="news" transform="translate(97.001 36.002)">
    <path id="Union_33" data-name="Union 33" class="cls-1" d="M-725-20156.994v-24.752h1.631V-20185h26.372v23.971a4.041,4.041,0,0,1-3.217,3.947v.086Zm2.685-24.752h22.1v23.436c1.028.191,2.087-1.125,2.087-2.148v-23.4h-24.189Zm-1.641,23.436h22.725v-22.219h-22.725Zm12.355-3.359v-1h7.629v1Zm-9.843,0v-1h7.634v1Zm9.843-3.172v-1.119h7.629v1.119Zm-9.843,0v-1.119h7.634v1.119Zm-.01-2.922v-6.576h17.492v6.576Zm1.094-1.119h15.3v-4.363h-15.3Zm-1.084-7.676v-1.139h17.472v1.139Z" transform="translate(627.996 20148.996)"/>
  </g>
</svg>
