<svg xmlns="http://www.w3.org/2000/svg" viewBox="0 0 19.4 19.4">
  <g id="searchhover" transform="translate(-993 -452)">
    <g id="Symbol_1" data-name="Symbol 1" transform="translate(-141 158)">
      <path id="Path_2" data-name="Path 2" d="M2.425,8.488A6,6,0,0,1,8.488,2.425,6,6,0,0,1,14.55,8.488,6,6,0,0,1,8.488,14.55,6,6,0,0,1,2.425,8.488ZM17.339,19.036a1.2,1.2,0,1,0,1.7-1.7L15.278,13.58a8.3,8.3,0,0,0,1.7-5.093A8.435,8.435,0,0,0,8.488,0,8.435,8.435,0,0,0,0,8.488a8.435,8.435,0,0,0,8.488,8.488,8.3,8.3,0,0,0,5.092-1.7Z" transform="translate(1134 294)"/>
    </g>
  </g>
</svg>
