<svg xmlns="http://www.w3.org/2000/svg" viewBox="0 0 28.15 25.816">
  <defs>
    <style>
      .cls-1 {
        fill: #5c656a;
        stroke: #5c656a;
        stroke-width: 0.15px;
      }
    </style>
  </defs>
  <path id="staff" class="cls-1" d="M25.673,22.515l-4.458-2.229a1.228,1.228,0,0,1-.682-1.1V17.6c.107-.131.219-.28.336-.444a10.68,10.68,0,0,0,1.379-2.706,1.852,1.852,0,0,0,1.086-1.688V10.9a1.861,1.861,0,0,0-.467-1.225V7.193a4.183,4.183,0,0,0-.976-3.045A5.874,5.874,0,0,0,17.267,2.5a5.875,5.875,0,0,0-4.624,1.647A4.053,4.053,0,0,0,11.68,6.39a6.061,6.061,0,0,0-2.813-.623c-4.848,0-5.131,4.132-5.133,4.2V12.1a1.625,1.625,0,0,0-.467,1.087V14.8a1.665,1.665,0,0,0,.612,1.29,7.152,7.152,0,0,0,1.7,2.933v1.28a1.014,1.014,0,0,1-.546.894l-3.1,1.947A3.7,3.7,0,0,0,0,26.395v1.772H28V26.28A4.187,4.187,0,0,0,25.673,22.515ZM6.533,26.189v1.044H.933v-.839A2.778,2.778,0,0,1,2.4,23.953l3.1-1.947a1.934,1.934,0,0,0,1.008-1.7V18.63l-.148-.139a6.216,6.216,0,0,1-1.618-2.779L4.7,15.528l-.16-.1A.742.742,0,0,1,4.2,14.8V13.191a.816.816,0,0,1,.313-.548l.154-.139V9.994c.008-.134.252-3.294,4.2-3.294a4.859,4.859,0,0,1,2.8.767V9.675A1.861,1.861,0,0,0,11.2,10.9v1.867a1.877,1.877,0,0,0,.047.417c.013.054.038.1.055.156a1.843,1.843,0,0,0,.082.233v0a1.87,1.87,0,0,0,.513.643l.007.025c.028.107.057.213.089.317l.038.122c.007.021.014.043.021.065.016.05.032.1.049.15.028.082.057.166.091.258.014.038.03.073.045.111.038.1.077.192.117.285.01.022.018.047.028.069l.026.059c.012.027.025.051.037.078.046.1.091.2.137.29l.022.046c.029.058.059.113.088.169.05.1.1.187.149.274l.072.126c.067.115.131.22.193.318l.04.063c.113.175.211.317.292.427l.058.079.033.045v1.544a1.233,1.233,0,0,1-.643,1.083l-1.235.673-.3.165L8.727,22.492A4.21,4.21,0,0,0,6.533,26.189Zm20.533,1.044H7.467V26.189a3.274,3.274,0,0,1,1.708-2.877l4.163-2.271a2.167,2.167,0,0,0,1.129-1.9V17.264h0l-.091-.108-.018-.021s-.03-.036-.077-.1l-.009-.011c-.025-.032-.054-.071-.087-.117v0c-.07-.1-.157-.222-.254-.373l-.007-.01c-.046-.071-.094-.149-.144-.232l-.011-.019c-.105-.177-.217-.377-.329-.6h0c-.059-.119-.119-.244-.176-.374h0l-.024-.054h0c-.026-.058-.051-.119-.077-.182l-.028-.07c-.024-.061-.049-.123-.075-.193-.048-.127-.092-.259-.135-.4l-.026-.083-.009-.028c-.044-.147-.086-.3-.121-.453l-.042-.185-.159-.1a.93.93,0,0,1-.432-.783V10.9a.921.921,0,0,1,.313-.688l.154-.139V7l-.013-.01a3.23,3.23,0,0,1,.757-2.229,5.012,5.012,0,0,1,3.922-1.33,5.024,5.024,0,0,1,3.913,1.32,3.285,3.285,0,0,1,.757,2.352l0,2.968.154.139a.919.919,0,0,1,.313.688v1.867a.928.928,0,0,1-.664.886l-.232.071-.075.231a9.769,9.769,0,0,1-1.323,2.666,6.14,6.14,0,0,1-.391.5l-.116.133v1.925a2.155,2.155,0,0,0,1.2,1.938l4.458,2.229a3.258,3.258,0,0,1,1.811,2.931Z" transform="translate(0.075 -2.425)"/>
</svg>
