<svg width="17" height="12" viewBox="0 0 17 12" fill="none" xmlns="http://www.w3.org/2000/svg">
<path d="M2.55 5.1875C3.48766 5.1875 4.25 4.45879 4.25 3.5625C4.25 2.66621 3.48766 1.9375 2.55 1.9375C1.61234 1.9375 0.85 2.66621 0.85 3.5625C0.85 4.45879 1.61234 5.1875 2.55 5.1875ZM14.45 5.1875C15.3877 5.1875 16.15 4.45879 16.15 3.5625C16.15 2.66621 15.3877 1.9375 14.45 1.9375C13.5123 1.9375 12.75 2.66621 12.75 3.5625C12.75 4.45879 13.5123 5.1875 14.45 5.1875ZM15.3 6H13.6C13.1325 6 12.7102 6.18027 12.402 6.47227C13.4725 7.0334 14.2322 8.04648 14.3969 9.25H16.15C16.6202 9.25 17 8.88691 17 8.4375V7.625C17 6.72871 16.2377 6 15.3 6ZM8.5 6C10.1442 6 11.475 4.72793 11.475 3.15625C11.475 1.58457 10.1442 0.3125 8.5 0.3125C6.85578 0.3125 5.525 1.58457 5.525 3.15625C5.525 4.72793 6.85578 6 8.5 6ZM10.54 6.8125H10.3195C9.76703 7.06641 9.15344 7.21875 8.5 7.21875C7.84656 7.21875 7.23563 7.06641 6.68047 6.8125H6.46C4.77063 6.8125 3.4 8.12266 3.4 9.7375V10.4688C3.4 11.1416 3.97109 11.6875 4.675 11.6875H12.325C13.0289 11.6875 13.6 11.1416 13.6 10.4688V9.7375C13.6 8.12266 12.2294 6.8125 10.54 6.8125ZM4.59797 6.47227C4.28984 6.18027 3.8675 6 3.4 6H1.7C0.762344 6 0 6.72871 0 7.625V8.4375C0 8.88691 0.379844 9.25 0.85 9.25H2.60047C2.76781 8.04648 3.5275 7.0334 4.59797 6.47227Z" fill="#2E2E2E"/>
</svg>
