<svg width="13" height="13" viewBox="0 0 13 13" fill="none" xmlns="http://www.w3.org/2000/svg">
<path fill-rule="evenodd" clip-rule="evenodd" d="M12.2417 0.541667H0.758333C0.638672 0.541667 0.541667 0.638672 0.541667 0.758333V12.2417C0.541667 12.3613 0.638672 12.4583 0.758333 12.4583H12.2417C12.3613 12.4583 12.4583 12.3613 12.4583 12.2417V0.758333C12.4583 0.638672 12.3613 0.541667 12.2417 0.541667ZM0.758333 0C0.339517 0 0 0.339517 0 0.758333V12.2417C0 12.6605 0.339517 13 0.758333 13H12.2417C12.6605 13 13 12.6605 13 12.2417V0.758333C13 0.339517 12.6605 0 12.2417 0H0.758333Z" fill="black"/>
<path d="M6.93336 1.13747C6.93336 1.01781 7.03036 0.920807 7.15003 0.920807H11.5917C11.7114 0.920807 11.8084 1.01781 11.8084 1.13747C11.8084 1.25714 11.7114 1.35414 11.5917 1.35414H7.15003C7.03036 1.35414 6.93336 1.25714 6.93336 1.13747Z" fill="black"/>
<path fill-rule="evenodd" clip-rule="evenodd" d="M12.2417 0.541667H0.758333C0.638672 0.541667 0.541667 0.638672 0.541667 0.758333V1.84167H12.4583V0.758333C12.4583 0.638672 12.3613 0.541667 12.2417 0.541667ZM0.758333 0C0.339517 0 0 0.339517 0 0.758333V2.38333H13V0.758333C13 0.339517 12.6605 0 12.2417 0H0.758333Z" fill="black"/>
<path d="M2.00415 1.13753C2.00415 1.37685 1.81014 1.57086 1.57082 1.57086C1.3315 1.57086 1.13749 1.37685 1.13749 1.13753C1.13749 0.898203 1.3315 0.704193 1.57082 0.704193C1.81014 0.704193 2.00415 0.898203 2.00415 1.13753Z" fill="black"/>
<path d="M3.25001 1.13753C3.25001 1.37685 3.056 1.57086 2.81668 1.57086C2.57736 1.57086 2.38335 1.37685 2.38335 1.13753C2.38335 0.898203 2.57736 0.704193 2.81668 0.704193C3.056 0.704193 3.25001 0.898203 3.25001 1.13753Z" fill="black"/>
<path d="M4.49581 1.13753C4.49581 1.37685 4.3018 1.57086 4.06247 1.57086C3.82315 1.57086 3.62914 1.37685 3.62914 1.13753C3.62914 0.898203 3.82315 0.704193 4.06247 0.704193C4.3018 0.704193 4.49581 0.898203 4.49581 1.13753Z" fill="black"/>
<path fill-rule="evenodd" clip-rule="evenodd" d="M10.725 7.90833H2.22083V10.8333H10.725V7.90833ZM1.89583 7.58333V11.1583H11.05V7.58333H1.89583Z" fill="black"/>
<path fill-rule="evenodd" clip-rule="evenodd" d="M10.725 3.90005H7.25836V6.50005H10.725V3.90005ZM6.93336 3.57505V6.82505H11.05V3.57505H6.93336Z" fill="black"/>
<path d="M1.89583 5.68747C1.89583 5.59773 1.96859 5.52497 2.05833 5.52497H5.85C5.93975 5.52497 6.0125 5.59773 6.0125 5.68747C6.0125 5.77722 5.93975 5.84997 5.85 5.84997H2.05833C1.96859 5.84997 1.89583 5.77722 1.89583 5.68747Z" fill="black"/>
<path d="M1.89583 6.49997C1.89583 6.41023 1.96859 6.33747 2.05833 6.33747H5.85C5.93975 6.33747 6.0125 6.41023 6.0125 6.49997C6.0125 6.58972 5.93975 6.66247 5.85 6.66247H2.05833C1.96859 6.66247 1.89583 6.58972 1.89583 6.49997Z" fill="black"/>
<path d="M1.89583 4.06247C1.89583 3.97273 1.96859 3.89997 2.05833 3.89997H5.85C5.93975 3.89997 6.0125 3.97273 6.0125 4.06247C6.0125 4.15222 5.93975 4.22497 5.85 4.22497H2.05833C1.96859 4.22497 1.89583 4.15222 1.89583 4.06247Z" fill="black"/>
<path d="M1.89583 4.87497C1.89583 4.78523 1.96859 4.71247 2.05833 4.71247H5.85C5.93975 4.71247 6.0125 4.78523 6.0125 4.87497C6.0125 4.96472 5.93975 5.03747 5.85 5.03747H2.05833C1.96859 5.03747 1.89583 4.96472 1.89583 4.87497Z" fill="black"/>
</svg>
