<svg width="17" height="18" viewBox="0 0 17 18" fill="none" xmlns="http://www.w3.org/2000/svg">
<path d="M14.2412 6.20593H14.748L14.7285 6.16623C13.6759 3.58578 11.2004 1.89856 8.45201 1.89856C4.7095 1.89856 1.6687 4.9951 1.6687 8.80623C1.6687 12.6174 4.7095 15.7139 8.45201 15.7139C10.2258 15.7139 11.9021 15.0192 13.1691 13.7686C14.4361 12.5181 15.1769 10.8507 15.2353 9.04442V9.02457H7.39943V9.48112H14.748C14.5921 11.0492 13.8709 12.4983 12.7013 13.5701C11.5318 14.6619 10.0114 15.2574 8.45201 15.2574C4.9629 15.2574 2.11702 12.3593 2.11702 8.80623C2.11702 5.25315 4.9629 2.3551 8.45201 2.3551C10.947 2.37495 13.2081 3.86367 14.2412 6.20593Z" fill="white"/>
<path d="M16.5803 7.8336L8.52999 7.81375V8.29014H13.7539H14.7675H16.1515C16.171 8.46879 16.171 8.64744 16.171 8.80623C16.1905 13.1533 12.7208 16.6865 8.45202 16.6865C4.18321 16.6865 0.713581 13.1533 0.713581 8.80623C0.713581 4.45917 4.18321 0.945782 8.45202 0.945782C11.7267 0.945782 14.6506 3.04984 15.7421 6.20593V6.22578H16.2294V6.20593C15.0989 2.77195 11.9801 0.469391 8.45202 0.469391C3.92981 0.469391 0.265259 4.22097 0.265259 8.80623C0.265259 13.3915 3.9493 17.1431 8.45202 17.1431C12.9547 17.1431 16.6388 13.3915 16.6388 8.80623C16.6388 8.48864 16.6193 8.17104 16.5803 7.8336Z" fill="white"/>
<path d="M8.45205 3.82399C10.1674 3.82399 11.7073 4.71722 12.6234 6.18609V6.20594H13.1497L13.1302 6.16624C12.1751 4.43932 10.3818 3.3476 8.45205 3.3476C5.48923 3.3476 3.09167 5.7891 3.09167 8.80624C3.09167 11.8234 5.48923 14.2649 8.45205 14.2649C10.8496 14.2649 12.9743 12.6174 13.6175 10.2553V10.2354H8.54951V10.7118H12.9938C12.2336 12.5975 10.4598 13.8083 8.47155 13.8083C5.76212 13.8083 3.57898 11.5653 3.57898 8.82609C3.57898 6.08684 5.74263 3.82399 8.45205 3.82399Z" fill="white"/>
</svg>
