<svg width="11" height="14" viewBox="0 0 11 14" fill="none" xmlns="http://www.w3.org/2000/svg">
<path d="M5.5 7C7.23594 7 8.64286 5.54512 8.64286 3.75C8.64286 1.95488 7.23594 0.5 5.5 0.5C3.76406 0.5 2.35714 1.95488 2.35714 3.75C2.35714 5.54512 3.76406 7 5.5 7ZM7.7 7.8125H7.28996C6.74487 8.07148 6.13839 8.21875 5.5 8.21875C4.86161 8.21875 4.25759 8.07148 3.71004 7.8125H3.3C1.47812 7.8125 0 9.34102 0 11.225V12.2812C0 12.9541 0.527902 13.5 1.17857 13.5H9.82143C10.4721 13.5 11 12.9541 11 12.2812V11.225C11 9.34102 9.52187 7.8125 7.7 7.8125Z" fill="#2E2E2E"/>
</svg>
