<?xml version="1.0" standalone="no"?>
<svg version="1.1" preserveAspectRatio="none" viewBox="0 0 24 24" class="ng-element" data-id="6193227f159fc8204ec21fe6cff20a54" style="fill: rgb(0, 0, 0); width: 22px; height: 22px;" xmlns="http://www.w3.org/2000/svg"><g><path xmlns:default="http://www.w3.org/2000/svg" id="tablet" d="M12.47,18.47c-0.26,0.25-0.67,0.24-0.92-0.02s-0.24-0.67,0.02-0.92s0.67-0.24,0.92,0.02  c0.12,0.12,0.18,0.28,0.18,0.45C12.67,18.18,12.6,18.35,12.47,18.47z M16.57,16.57c-0.06,0.06-0.14,0.1-0.23,0.1H7.67  c-0.18-0.01-0.32-0.15-0.33-0.33v-10c0-0.18,0.15-0.33,0.33-0.34h8.66c0.18,0.01,0.32,0.15,0.33,0.33v10  C16.66,16.42,16.63,16.51,16.57,16.57z M17.51,5.16c-0.31-0.32-0.74-0.5-1.18-0.49H7.67C6.75,4.67,6,5.42,6,6.34l0,0v11.32  c0,0.92,0.75,1.67,1.67,1.67l0,0h8.66c0.92,0,1.67-0.75,1.67-1.67l0,0V6.34C18.01,5.9,17.83,5.47,17.51,5.16z" style="fill: rgb(114, 164, 247);"/></g></svg>