<svg xmlns="http://www.w3.org/2000/svg" viewBox="0 0 21.691 17.672">
  <defs>
    <style>
      .cls-1 {
        fill: #575560;
      }
    </style>
  </defs>
  <path id="quote-open-hover" class="cls-1" d="M4.037,4.1a6.314,6.314,0,0,0-1.6,3.96,5.321,5.321,0,0,0,.177,1.478,4.258,4.258,0,0,1,2.6-.946A4.513,4.513,0,0,1,8.411,9.83a4.19,4.19,0,0,1,1.3,3.251,4.469,4.469,0,0,1-.591,2.305,3.913,3.913,0,0,1-1.655,1.6,4.26,4.26,0,0,1-2.246.591,4.68,4.68,0,0,1-4.137-2.246A8.611,8.611,0,0,1-.1,10.716,11.594,11.594,0,0,1,1.673,4.392,12.616,12.616,0,0,1,7.111-.1l.65,1.241A11.148,11.148,0,0,0,4.037,4.1Zm11.88,0a6.314,6.314,0,0,0-1.6,3.96A5.321,5.321,0,0,0,14.5,9.534a4.258,4.258,0,0,1,2.6-.946A4.32,4.32,0,0,1,20.291,9.83a4.405,4.405,0,0,1,1.3,3.251,4.147,4.147,0,0,1-1.3,3.192,4.567,4.567,0,0,1-3.192,1.3,4.68,4.68,0,0,1-4.137-2.246,8.611,8.611,0,0,1-1.182-4.61,11.594,11.594,0,0,1,1.773-6.324A12.616,12.616,0,0,1,18.991-.1l.65,1.241A11.148,11.148,0,0,0,15.917,4.1Z" transform="translate(0.1 0.1)"/>
</svg>
