<svg xmlns="http://www.w3.org/2000/svg" viewBox="0 0 28.217 25.827">
  <defs>
    <style>
      .cls-1 {
        fill: #5c656a;
        stroke: #5c656a;
        stroke-width: 0.2px;
      }
    </style>
  </defs>
  <path id="MeetingMinutes" class="cls-1" d="M2365.468-6628.666h-16.055a.423.423,0,0,1-.413-.435v-19.687a.426.426,0,0,1,.441-.405h3.573a.46.46,0,0,1,.458.458.46.46,0,0,1-.458.458h-3.1v18.694h15.161a5.834,5.834,0,0,1-.314-1.91,6.109,6.109,0,0,1,6.112-6.106,5.9,5.9,0,0,1,1.922.309v-10.986h-3.7a.461.461,0,0,1-.459-.458.461.461,0,0,1,.459-.458h4.192a.429.429,0,0,1,.425.436v11.859a6.123,6.123,0,0,1,2.6,2.6,6.114,6.114,0,0,1-2.6,8.241,6.09,6.09,0,0,1-2.812.688A6.111,6.111,0,0,1,2365.468-6628.666Zm.212-2.815a5.2,5.2,0,0,0,5.2,5.2,5.206,5.206,0,0,0,5.2-5.2,5.2,5.2,0,0,0-5.2-5.2A5.2,5.2,0,0,0,2365.68-6631.481Zm5.207.747h-.017a.436.436,0,0,1-.425-.455v-3.572a.46.46,0,0,1,.459-.457.46.46,0,0,1,.459.457v3.114h2.276a.455.455,0,0,1,.458.453.461.461,0,0,1-.458.459Zm-18.47-4.754a.46.46,0,0,1-.458-.458.461.461,0,0,1,.458-.46h7.742a.461.461,0,0,1,.458.46.46.46,0,0,1-.458.458Zm0-3.555a.461.461,0,0,1-.458-.459.459.459,0,0,1,.458-.458h13.7a.459.459,0,0,1,.458.458.457.457,0,0,1-.458.459Zm0-3.614a.459.459,0,0,1-.458-.458.46.46,0,0,1,.458-.458h17.873a.46.46,0,0,1,.458.458.46.46,0,0,1-.464.458Zm14.415-4.311v-3.573a.46.46,0,0,1,.46-.458.46.46,0,0,1,.459.458v3.573a.462.462,0,0,1-.459.459A.462.462,0,0,1,2366.832-6646.968Zm-11.868,0v-3.573a.459.459,0,0,1,.459-.458.46.46,0,0,1,.458.458v3.573a.461.461,0,0,1-.458.459A.46.46,0,0,1,2354.964-6646.968Zm2.644-1.309a.46.46,0,0,1-.458-.458.459.459,0,0,1,.458-.458h7.425a.458.458,0,0,1,.458.458.46.46,0,0,1-.458.458Z" transform="translate(-2348.9 6651.099)"/>
</svg>
