<svg xmlns="http://www.w3.org/2000/svg" viewBox="0 0 30 27.578">
  <defs>
    <style>
      .cls-1 {
        fill: #5c656a;
      }
    </style>
  </defs>
  <g id="rfp" transform="translate(-19.999 43.344)">
    <path id="Union_35" data-name="Union 35" class="cls-1" d="M1.116,27.578A1.117,1.117,0,0,1,0,26.461V1.6A1.5,1.5,0,0,1,1.5.1H9.13a.436.436,0,0,1,.437.441A.436.436,0,0,1,9.13.979H1.5A.621.621,0,0,0,.879,1.6V26.461a.242.242,0,0,0,.237.238H19.182a.239.239,0,0,0,.237-.238v-7.57L17.644,21.9a.869.869,0,0,1-.542.416.9.9,0,0,1-.421,0l-.858,1.459a1.173,1.173,0,0,1-1.606.41l-.163-.1a1.172,1.172,0,0,1-.416-1.6l.858-1.459a.969.969,0,0,1-.195-.371.9.9,0,0,1,.1-.687c.337-.58.537-.912.869-1.479H4.46a.446.446,0,0,1-.442-.445.439.439,0,0,1,.442-.436H15.791l3.628-6.166V6.779H14.733a1.116,1.116,0,0,1-1.116-1.115V.979H11.178a.436.436,0,0,1-.437-.437A.436.436,0,0,1,11.178.1h2.88a.441.441,0,0,1,.311.125l5.8,5.8a.454.454,0,0,1,.126.311V8.5l4.323-7.34A2.367,2.367,0,0,1,27.854.324l.453.27a2.366,2.366,0,0,1,.869,3.18,2.632,2.632,0,0,1,.463,3.242l-2.933,4.977a.439.439,0,1,1-.758-.441l2.933-4.982a1.751,1.751,0,0,0-.168-2.01L24.452,11.8a.928.928,0,0,1-.8.455,1,1,0,0,1-.295-.049l-1.085,1.844a.445.445,0,0,1-.606.156.436.436,0,0,1-.153-.6l1.079-1.83-1.743-1.027-5.66,9.613a.1.1,0,0,0,.032.133c.021.01,1.548.91,1.6.938a.078.078,0,0,0,.105-.027c.395-.678,3.149-5.35,3.549-6.029a.44.44,0,0,1,.6-.158.447.447,0,0,1,.158.607L20.3,17.4v9.061a1.117,1.117,0,0,1-1.116,1.117ZM14.4,22.934a.3.3,0,0,0,.105.4l.163.094a.29.29,0,0,0,.4-.1l.837-1.42-.669-.395ZM25.379,1.609l-4.7,7.982a.027.027,0,0,0,0,.021c0,.01.011.014.011.021l2.943,1.732a.05.05,0,0,0,.063-.018l4.691-7.973a1.479,1.479,0,0,0-.527-2.025l-.453-.27a1.512,1.512,0,0,0-.749-.2A1.483,1.483,0,0,0,25.379,1.609ZM14.5,5.664a.242.242,0,0,0,.237.236H18.8L14.5,1.6ZM12.163,23.086l-.916-.705-.606.518a.744.744,0,0,1-1-.027L8.24,21.545,6.45,23.072a.439.439,0,0,1-.569-.67l1.9-1.615a.726.726,0,0,1,.964.025l1.422,1.338.663-.568a.638.638,0,0,1,.8-.021l1.079.832a.438.438,0,0,1-.269.785A.436.436,0,0,1,12.163,23.086Zm-7.7-7.477a.439.439,0,1,1,0-.879H15.838a.439.439,0,1,1,0,.879Zm0-2.885a.439.439,0,1,1,0-.879H15.838a.439.439,0,1,1,0,.879Zm0-2.879a.442.442,0,0,1,0-.885H15.838a.442.442,0,0,1,0,.885Z" transform="translate(19.999 -43.344)"/>
  </g>
</svg>
