<svg xmlns="http://www.w3.org/2000/svg" viewBox="0 0 27.999 22.713">
  <defs>
    <style>
      .cls-1 {
        fill: #5c656a;
      }
    </style>
  </defs>
  <g id="meetingItem" transform="translate(-165.001 -77)">
    <path id="Union_48" data-name="Union 48" class="cls-1" d="M-79.8-20147.537a.455.455,0,0,1-.451-.455v-21.807a.452.452,0,0,1,.451-.451h27.1a.449.449,0,0,1,.451.451v21.807a.452.452,0,0,1-.451.455Zm.451-.906h26.2v-20.773h-26.2Zm8.16-3.689v-.9h15.616v.9Zm-5.8,0a.453.453,0,0,1-.456-.451v-3.613a.453.453,0,0,1,.456-.451h3.609a.453.453,0,0,1,.456.451v3.613a.453.453,0,0,1-.456.451Zm.451-.9h2.708v-2.713h-2.708Zm5.351-1.832v-.9h15.616v.9Zm-5.8-5.32a.449.449,0,0,1-.456-.449v-3.615a.453.453,0,0,1,.456-.451h3.609a.453.453,0,0,1,.456.451v3.615a.449.449,0,0,1-.456.449Zm.451-.9h2.708v-2.713h-2.708Zm5.351.754v-.9h15.616v.9Zm0-2.732v-.9h15.616v.9Z" transform="translate(245.25 20247.25)"/>
  </g>
</svg>
